<?xml version="1.0" standalone="no"?>
<!DOCTYPE svg PUBLIC "-//W3C//DTD SVG 20010904//EN"
 "http://www.w3.org/TR/2001/REC-SVG-20010904/DTD/svg10.dtd">
<svg version="1.0" xmlns="http://www.w3.org/2000/svg"
 width="227.000000pt" height="227.000000pt" viewBox="0 0 227.000000 227.000000"
 preserveAspectRatio="xMidYMid meet">
<metadata>
Created by potrace 1.11, written by Peter Selinger 2001-2013
</metadata>
<g transform="translate(0.000000,227.000000) scale(0.100000,-0.100000)"
fill="#000000" stroke="none">
<path d="M550 2095 c-239 -34 -437 -140 -499 -268 -20 -42 -21 -57 -21 -570
l0 -528 24 -48 c151 -298 885 -375 1243 -131 69 47 130 122 140 172 8 38 22
25 75 -66 106 -184 191 -283 310 -362 122 -81 331 -150 384 -125 29 13 30 32
4 131 -47 180 -50 413 -10 660 28 175 27 220 -7 260 l-27 32 -82 -7 c-121 -10
-153 12 -242 166 -27 48 -70 114 -95 147 -62 80 -194 209 -288 280 -41 31
-100 77 -130 101 -167 136 -477 198 -779 156z m420 -100 c164 -32 303 -103
357 -184 16 -23 23 -49 23 -81 0 -247 -649 -376 -1035 -205 -247 109 -259 282
-28 399 69 34 209 74 303 86 99 12 274 5 380 -15z m591 -372 c114 -117 155
-170 214 -278 82 -149 160 -202 285 -193 84 6 80 19 48 -175 -29 -176 -32
-501 -5 -621 9 -43 17 -82 17 -87 0 -13 -98 20 -170 56 -150 77 -257 188 -350
363 -41 77 -103 150 -136 158 l-24 6 0 439 c0 241 4 439 8 439 5 0 55 -48 113
-107z m-1254 -193 c226 -85 510 -98 750 -35 98 26 211 77 260 119 17 14 34 26
37 26 3 0 6 -177 6 -393 l0 -393 -28 -45 c-84 -131 -307 -210 -598 -210 -278
0 -515 84 -591 209 -23 37 -23 40 -23 434 l0 396 64 -43 c36 -24 91 -53 123
-65z"/>
<path d="M652 1859 c-97 -17 -146 -55 -140 -110 6 -61 96 -99 238 -99 145 0
233 38 238 101 3 30 -2 41 -28 62 -17 15 -47 31 -68 37 -54 15 -179 20 -240 9z
m236 -79 c18 -7 31 -17 29 -23 -15 -45 -283 -50 -331 -6 -43 39 209 63 302 29z"/>
<path d="M1650 1440 c0 -23 4 -30 20 -30 16 0 20 7 20 30 0 23 -4 30 -20 30
-16 0 -20 -7 -20 -30z"/>
<path d="M1654 1357 c-10 -27 0 -72 16 -72 11 0 15 11 15 39 0 40 -20 61 -31
33z"/>
<path d="M1650 1200 c0 -33 3 -40 20 -40 17 0 20 7 20 40 0 33 -3 40 -20 40
-17 0 -20 -7 -20 -40z"/>
<path d="M1654 1107 c-11 -29 0 -72 19 -75 16 -3 18 2 15 39 -3 43 -23 64 -34
36z"/>
<path d="M1654 976 c-10 -26 0 -71 16 -71 10 0 16 13 18 43 2 33 0 42 -13 42
-8 0 -18 -6 -21 -14z"/>
<path d="M1650 820 c0 -33 3 -40 20 -40 17 0 20 7 20 40 0 33 -3 40 -20 40
-17 0 -20 -7 -20 -40z"/>
<path d="M1654 726 c-9 -23 0 -51 16 -51 10 0 15 10 15 29 0 32 -21 47 -31 22z"/>
<path d="M214 1425 c-9 -23 4 -47 23 -43 11 2 19 14 21 31 3 22 -1 27 -18 27
-11 0 -23 -7 -26 -15z"/>
<path d="M222 1328 c-26 -26 -7 -86 23 -75 12 5 15 17 13 44 -3 39 -16 51 -36
31z"/>
<path d="M857 1323 c-4 -3 -7 -17 -7 -30 0 -16 6 -23 20 -23 16 0 20 7 20 30
0 28 -17 40 -33 23z"/>
<path d="M854 1217 c-11 -29 0 -72 19 -75 16 -3 18 2 15 39 -3 43 -23 64 -34
36z"/>
<path d="M214 1196 c-11 -30 0 -61 24 -64 21 -3 23 0 20 35 -3 40 -32 59 -44
29z"/>
<path d="M857 1093 c-13 -12 -7 -71 7 -76 20 -8 26 2 26 45 0 36 -15 50 -33
31z"/>
<path d="M222 1078 c-26 -26 -7 -86 23 -75 12 5 15 17 13 44 -3 39 -16 51 -36
31z"/>
<path d="M852 933 c2 -27 8 -39 21 -41 14 -3 17 4 17 37 0 35 -3 41 -21 41
-17 0 -20 -5 -17 -37z"/>
<path d="M216 945 c-10 -26 -7 -52 7 -63 21 -18 39 2 35 39 -3 37 -31 52 -42
24z"/>
<path d="M854 836 c-10 -26 0 -71 16 -71 10 0 16 13 18 43 2 33 0 42 -13 42
-8 0 -18 -6 -21 -14z"/>
<path d="M221 827 c-24 -24 -6 -85 23 -74 10 4 16 18 16 41 0 36 -19 53 -39
33z"/>
<path d="M850 680 c0 -33 3 -40 20 -40 17 0 20 7 20 40 0 33 -3 40 -20 40 -17
0 -20 -7 -20 -40z"/>
<path d="M215 689 c-9 -27 19 -59 36 -42 15 15 7 57 -13 61 -10 2 -19 -6 -23
-19z"/>
<path d="M854 586 c-9 -24 0 -51 19 -54 15 -3 18 2 15 29 -3 35 -24 51 -34 25z"/>
</g>
</svg>
