<?xml version="1.0" standalone="no"?>
<!DOCTYPE svg PUBLIC "-//W3C//DTD SVG 20010904//EN"
 "http://www.w3.org/TR/2001/REC-SVG-20010904/DTD/svg10.dtd">
<svg version="1.0" xmlns="http://www.w3.org/2000/svg"
 width="1024.000000pt" height="1024.000000pt" viewBox="0 0 1024.000000 1024.000000"
 preserveAspectRatio="xMidYMid meet">
<metadata>
Created by potrace 1.11, written by Peter Selinger 2001-2013
</metadata>
<g transform="translate(0.000000,1024.000000) scale(0.100000,-0.100000)"
fill="#000000" stroke="none">
<path d="M3657 8674 c-1 -1 -63 -5 -137 -8 -74 -4 -148 -9 -165 -11 -16 -2
-61 -6 -98 -9 -38 -3 -72 -8 -75 -10 -4 -2 -38 -7 -77 -11 -38 -4 -72 -8 -75
-10 -3 -2 -22 -6 -42 -9 -115 -18 -317 -68 -483 -119 -313 -96 -643 -273 -844
-452 -65 -58 -138 -137 -188 -203 -61 -80 -139 -242 -162 -337 -22 -91 -22
-130 -23 -2370 0 -1569 1 -1682 14 -1736 5 -24 11 -51 13 -59 23 -100 92 -232
181 -345 146 -187 340 -334 619 -470 226 -110 446 -186 709 -245 151 -33 230
-47 376 -65 30 -3 66 -8 80 -10 138 -20 659 -28 835 -12 106 10 170 17 205 22
14 2 45 7 70 10 473 64 935 223 1255 432 129 85 171 119 276 223 131 130 222
267 264 398 9 28 20 52 25 52 19 0 117 -112 156 -177 22 -37 59 -115 82 -172
93 -232 266 -429 602 -684 167 -127 495 -314 775 -442 264 -121 617 -242 820
-281 22 -4 42 -8 45 -9 24 -6 121 -17 152 -17 66 1 122 53 120 111 0 16 -16
80 -35 142 -33 109 -53 181 -62 224 -2 11 -13 63 -24 115 -20 95 -25 121 -36
194 -4 21 -8 48 -11 59 -2 12 -6 39 -9 62 -3 22 -8 51 -10 65 -3 14 -7 45 -10
70 -3 25 -7 56 -10 70 -2 14 -7 50 -10 80 -3 30 -8 71 -10 90 -15 119 -18 148
-30 305 -4 55 -9 102 -10 105 -9 15 -19 263 -19 450 0 247 9 440 29 645 2 28
7 82 10 120 3 39 8 86 10 105 3 19 7 62 10 95 3 33 8 71 10 85 2 14 6 50 10
80 3 30 8 66 10 80 2 14 7 50 10 80 3 30 10 80 15 110 11 69 17 111 25 175 3
28 8 61 10 75 3 14 7 43 11 65 3 22 11 63 18 90 23 90 -2 191 -52 210 -18 7
-179 8 -190 1 -4 -2 -41 -7 -82 -11 -41 -4 -82 -8 -90 -10 -23 -4 -181 -19
-215 -20 -96 -3 -213 36 -315 105 -128 87 -233 220 -349 445 -277 534 -702
928 -1221 1132 -47 18 -89 33 -95 33 -5 0 -20 46 -32 102 -25 116 -94 265
-166 360 -165 220 -422 406 -759 552 -151 66 -400 147 -554 181 -104 23 -167
36 -200 40 -21 3 -61 10 -89 15 -27 5 -72 12 -100 15 -27 4 -63 8 -80 11 -108
15 -596 37 -608 28z m483 -258 c25 -4 83 -11 130 -17 47 -5 99 -12 115 -15
271 -43 483 -97 700 -179 110 -41 358 -161 363 -176 2 -5 9 -9 15 -9 30 0 234
-158 312 -241 142 -152 213 -310 213 -474 0 -379 -395 -738 -1048 -951 -98
-32 -222 -67 -280 -78 -14 -2 -57 -11 -96 -20 -38 -8 -92 -18 -120 -21 -27 -4
-56 -8 -64 -10 -8 -2 -37 -7 -65 -10 -27 -4 -61 -8 -74 -10 -166 -27 -716 -27
-952 0 -853 97 -1529 443 -1710 875 -35 83 -40 106 -44 211 -16 382 384 751
1046 965 61 19 118 37 127 39 9 2 53 13 98 24 81 21 208 47 274 57 19 2 46 7
60 9 14 3 48 7 75 10 28 3 61 8 75 10 14 2 63 7 110 10 47 4 87 9 89 10 5 6
601 -3 651 -9z m2266 -1372 c104 -51 262 -147 316 -192 153 -129 233 -204 310
-297 18 -21 40 -46 48 -55 21 -21 130 -173 173 -241 20 -31 66 -115 103 -185
76 -146 125 -223 197 -309 206 -246 440 -361 707 -349 52 2 106 6 120 9 14 2
50 7 80 9 30 3 74 8 98 11 38 5 43 3 38 -12 -3 -10 -8 -43 -11 -73 -3 -30 -8
-62 -10 -70 -2 -8 -7 -39 -10 -69 -4 -30 -8 -61 -10 -70 -3 -16 -13 -90 -19
-146 -13 -104 -18 -143 -21 -165 -2 -14 -6 -50 -10 -80 -3 -30 -8 -66 -10 -80
-2 -14 -7 -59 -10 -100 -4 -41 -8 -88 -11 -105 -2 -16 -6 -70 -10 -120 -3 -49
-8 -98 -10 -109 -24 -127 -23 -927 1 -1066 2 -14 7 -59 10 -100 6 -79 12 -141
20 -200 2 -19 7 -62 10 -95 3 -33 8 -71 10 -85 2 -14 6 -47 10 -75 5 -42 22
-162 50 -345 3 -19 10 -55 15 -80 5 -25 12 -56 14 -70 2 -14 12 -59 21 -100 9
-41 18 -84 20 -95 3 -11 11 -44 19 -73 l14 -54 -36 7 c-243 45 -773 262 -1077
440 -33 19 -67 38 -75 41 -39 18 -334 219 -405 277 -222 180 -345 334 -411
512 -43 118 -133 261 -218 348 -52 54 -157 130 -196 142 -17 5 -17 91 -18
1771 l0 1766 31 -6 c17 -3 81 -31 143 -62z m-4740 -474 c182 -162 464 -318
762 -422 48 -16 94 -32 102 -34 8 -2 71 -19 140 -39 69 -19 136 -36 150 -39
14 -2 72 -13 130 -25 103 -19 122 -23 225 -36 28 -4 61 -8 74 -10 12 -2 60 -7
105 -11 44 -3 97 -8 116 -9 19 -2 65 -4 103 -4 l67 -1 0 -77 c0 -112 32 -160
111 -164 89 -4 129 47 129 164 l0 77 58 0 c31 1 82 3 112 5 30 3 84 7 120 10
84 6 203 22 370 49 20 4 144 30 242 51 191 42 500 157 693 260 180 95 311 188
438 312 l77 76 -3 -1634 c-1 -899 -5 -1643 -9 -1654 -25 -78 -43 -123 -65
-163 -174 -318 -615 -586 -1197 -727 -77 -19 -154 -37 -171 -40 -16 -2 -39 -7
-50 -9 -60 -11 -114 -19 -210 -31 -33 -3 -71 -8 -85 -11 -151 -24 -709 -24
-880 1 -14 2 -52 6 -85 10 -81 8 -214 31 -327 56 -51 11 -104 23 -118 26 -135
28 -448 141 -590 213 -314 159 -538 367 -624 580 -47 115 -45 61 -46 1770 l0
1615 49 -50 c26 -28 66 -66 87 -85z"/>
<path d="M3619 7765 c-2 -2 -28 -6 -57 -10 -241 -30 -459 -154 -539 -307 -24
-47 -28 -64 -28 -143 0 -80 3 -96 29 -145 108 -206 426 -333 796 -317 330 15
591 140 678 324 23 49 27 71 27 143 0 70 -5 93 -24 130 -86 164 -271 271 -546
315 -71 12 -327 19 -336 10z m316 -250 c173 -36 286 -91 338 -165 23 -33 22
-57 -5 -96 -44 -64 -173 -129 -309 -155 -81 -15 -267 -20 -339 -8 -30 5 -69
11 -87 14 -54 8 -161 53 -216 89 -63 42 -91 85 -82 126 18 82 193 175 370 196
28 4 52 8 54 10 5 5 243 -4 276 -11z"/>
<path d="M3704 5204 c-56 -28 -64 -55 -64 -227 0 -143 2 -156 23 -188 32 -48
90 -63 145 -39 64 29 72 54 72 230 0 170 -8 197 -66 225 -40 19 -71 19 -110
-1z"/>
<path d="M3708 4249 c-15 -6 -36 -25 -48 -43 -18 -30 -20 -50 -20 -185 0 -161
4 -181 49 -218 50 -43 145 -23 176 37 21 40 21 305 1 355 -24 56 -90 78 -158
54z"/>
<path d="M3698 3285 c-50 -28 -58 -59 -58 -226 0 -171 11 -207 72 -228 64 -23
114 -8 149 45 17 25 19 48 19 182 0 164 -7 195 -52 224 -31 19 -97 21 -130 3z"/>
</g>
</svg>
